<svg width="2477" height="1306" xmlns="http://www.w3.org/2000/svg" xmlns:xlink="http://www.w3.org/1999/xlink" xml:space="preserve" overflow="hidden"><g transform="translate(-824 -363)"><path d="M2021.44 1462.84 2053.66 1462.84 2052.78 1466.79C2050.74 1467.22 2049.27 1467.7 2048.39 1468.24 2047.5 1468.77 2046.69 1469.58 2045.97 1470.65 2045.24 1471.73 2044.52 1473.41 2043.79 1475.69 2043.07 1477.97 2042.14 1481.69 2041.01 1486.85L2022.89 1569.35C2021.06 1577.73 2018.72 1584.4 2015.88 1589.37 2013.03 1594.34 2009.34 1598.01 2004.8 1600.4 2000.26 1602.79 1994.69 1603.99 1988.08 1603.99 1984.97 1603.99 1982.42 1603.72 1980.43 1603.18L1982.52 1595.45C1983.65 1595.88 1985.69 1596.09 1988.65 1596.09 1993.75 1596.09 1997.75 1594.12 2000.65 1590.17 2003.55 1586.23 2005.94 1580.06 2007.82 1571.68L2026.67 1486.77C2027.86 1481.45 2028.45 1477.12 2028.45 1473.79 2028.45 1471.27 2027.82 1469.51 2026.55 1468.52 2025.29 1467.52 2023.29 1466.95 2020.55 1466.79Z" fill="#FF0000" fill-rule="evenodd"/><text fill="#000000" fill-opacity="0" font-family="Arial,Arial_MSFontService,sans-serif" font-size="141.152" x="1980.43" y="1586.35">𝐽</text><path d="M1422.32 603.101C1426.03 603.101 1429.41 603.343 1432.47 603.827 1435.54 604.31 1438.73 605.25 1442.06 606.646L1439.24 613.817C1433.92 612.152 1428.47 611.319 1422.89 611.319 1415.47 611.319 1409.02 613.562 1403.51 618.047 1398.01 622.531 1394.02 628.91 1391.55 637.181L1432.07 637.181 1430.3 645.56 1389.45 645.56C1389.18 646.527 1388.9 648.084 1388.61 650.233 1388.31 652.381 1388.16 654.449 1388.16 656.436 1388.16 662.237 1389.61 666.695 1392.51 669.81 1395.41 672.926 1399.39 674.483 1404.44 674.483 1408.84 674.483 1412.64 674.174 1415.84 673.557 1419.03 672.939 1422.43 671.959 1426.03 670.616L1427.88 677.061C1423.05 678.995 1418.58 680.432 1414.47 681.372 1410.36 682.312 1405.67 682.782 1400.41 682.782 1392.19 682.782 1385.89 680.472 1381.52 675.853 1377.14 671.234 1374.95 664.654 1374.95 656.114 1374.95 651.925 1375.5 647.279 1376.6 642.176 1377.7 637.074 1379.52 632.186 1382.04 627.513 1384.56 622.84 1387.79 618.651 1391.71 614.945 1395.63 611.239 1400.18 608.338 1405.36 606.244 1410.55 604.149 1416.2 603.101 1422.32 603.101Z" fill="#002060" fill-rule="evenodd"/><text fill="#000000" fill-opacity="0" font-family="Arial,Arial_MSFontService,sans-serif" font-size="79.6802" x="1374.95" y="672.822">𝜖</text><rect x="0" y="0" width="348" height="44" stroke="#000000" stroke-width="6.875" stroke-miterlimit="8" transform="matrix(-1 0 0 1 1721.5 1367.5)"/><path d="M1448.11 1444.93 1463.3 1444.93 1463.3 1628.49 1448.11 1628.49ZM1620.28 1444.44 1659.63 1533.01 1659.63 1540.31 1620.28 1628.98 1609.73 1625.23 1641.39 1536.66 1609.73 1447.99Z" fill-rule="evenodd"/><path d="M1551.27 1458.18 1556.69 1458.18C1556.3 1464.49 1556.1 1473.24 1556.1 1484.42L1556.1 1568.65C1556.1 1572.46 1556.32 1575.34 1556.74 1577.28 1557.17 1579.22 1557.93 1580.8 1559.01 1582.01 1560.1 1583.23 1561.66 1584.18 1563.7 1584.87 1565.74 1585.57 1568.3 1586.09 1571.39 1586.45 1574.48 1586.81 1578.56 1587.06 1583.62 1587.19L1583.62 1594.39 1510.73 1594.39 1510.73 1587.19C1518.03 1586.86 1523.24 1586.42 1526.36 1585.86 1529.49 1585.3 1531.87 1584.46 1533.52 1583.35 1535.16 1582.23 1536.36 1580.65 1537.12 1578.61 1537.87 1576.57 1538.25 1573.25 1538.25 1568.65L1538.25 1488.66C1538.25 1486.03 1537.79 1484.1 1536.87 1482.89 1535.95 1481.67 1534.6 1481.06 1532.82 1481.06 1530.72 1481.06 1527.73 1482.15 1523.85 1484.32 1519.97 1486.49 1515.17 1489.48 1509.45 1493.29L1505.11 1485.7Z" fill-rule="evenodd"/><text fill="#000000" fill-opacity="0" font-family="Arial,Arial_MSFontService,sans-serif" font-size="136.212" x="1505.11" y="1577.37">1</text><rect x="0" y="0" width="348" height="44" stroke="#000000" stroke-width="6.875" stroke-miterlimit="8" transform="matrix(-1 0 0 1 2650.5 1367.5)"/><path d="M2388.07 1444.93 2403.26 1444.93 2403.26 1628.49 2388.07 1628.49ZM2560.24 1444.44 2599.59 1533.01 2599.59 1540.31 2560.24 1628.98 2549.68 1625.23 2581.34 1536.66 2549.68 1447.99Z" fill-rule="evenodd"/><path d="M2484.22 1458.18C2496.45 1458.18 2505.69 1460.86 2511.94 1466.22 2518.19 1471.58 2521.31 1479.35 2521.31 1489.55 2521.31 1493.03 2520.96 1496.24 2520.27 1499.16 2519.58 1502.09 2518.5 1504.98 2517.02 1507.84 2515.54 1510.7 2513.55 1513.78 2511.05 1517.06 2508.55 1520.35 2505.79 1523.69 2502.77 1527.08 2499.74 1530.46 2494.51 1536.1 2487.08 1543.99 2474.59 1557.21 2465.42 1568.75 2459.57 1578.61L2496.75 1578.61C2499.97 1578.61 2502.57 1578.41 2504.54 1578.02 2506.51 1577.63 2508.09 1576.97 2509.28 1576.05 2510.46 1575.13 2511.4 1573.93 2512.09 1572.45 2512.78 1570.97 2513.65 1568.68 2514.7 1565.59L2523.09 1565.59 2521.41 1594.39 2440.23 1594.39 2440.23 1589.66C2443.06 1582.75 2446.88 1575.69 2451.68 1568.45 2456.48 1561.22 2463.28 1552.7 2472.09 1542.91 2479.72 1534.49 2485.21 1528.11 2488.56 1523.77 2492.25 1519.04 2494.99 1514.94 2496.8 1511.49 2498.61 1508.04 2499.91 1504.79 2500.7 1501.73 2501.48 1498.67 2501.88 1495.6 2501.88 1492.51 2501.88 1487.57 2501.09 1483.22 2499.51 1479.44 2497.93 1475.66 2495.52 1472.68 2492.26 1470.51 2489.01 1468.34 2484.91 1467.26 2479.98 1467.26 2467.69 1467.26 2459.4 1474.09 2455.13 1487.77L2443.19 1487.77 2443.19 1468.83C2451.15 1465.09 2458.6 1462.37 2465.53 1460.7 2472.47 1459.02 2478.7 1458.18 2484.22 1458.18Z" fill-rule="evenodd"/><text fill="#000000" fill-opacity="0" font-family="Arial,Arial_MSFontService,sans-serif" font-size="136.212" x="2440.23" y="1577.37">2</text><path d="M68.8892-13.0358 348.938-10.1295 348.653 17.369 68.6038 14.4627ZM82.0675 42.1039 0 0 82.9236-40.3916ZM335.475-37.7707 417.542 4.33323 334.618 44.7249Z" fill="#FF0000" transform="matrix(1 0 0 -1 1803 1389.33)"/><rect x="836.5" y="900.5" width="266" height="27.9998" stroke="#000000" stroke-width="6.875" stroke-miterlimit="8"/><path d="M887.692 963.614 900.099 963.614 900.099 1113.55 887.692 1113.55ZM1028.25 963.189 1060.4 1035.54 1060.4 1041.5 1028.25 1113.93 1019.63 1110.87 1045.49 1038.52 1019.63 966.089Z" fill-rule="evenodd"/><path d="M966 974.449C972.069 974.449 977.387 975.389 981.952 977.269 986.517 979.149 990.009 981.848 992.426 985.366 994.843 988.884 996.051 993.087 996.051 997.974 996.051 1002.54 995.138 1006.55 993.312 1010.02 991.486 1013.48 988.921 1016.5 985.618 1019.08 982.315 1021.66 978.031 1024.19 972.767 1026.66L972.767 1027.38C976.044 1027.97 979.199 1028.98 982.234 1030.4 985.269 1031.83 987.968 1033.67 990.331 1035.92 992.694 1038.18 994.587 1040.88 996.011 1044.02 997.434 1047.16 998.146 1050.75 998.146 1054.77 998.146 1061 996.79 1066.54 994.077 1071.37 991.365 1076.2 987.216 1080.02 981.63 1082.81 976.044 1085.6 969.249 1087 961.246 1087 956.627 1087 951.646 1086.48 946.301 1085.43 940.957 1084.38 936.056 1083 931.598 1081.28L931.598 1064.2 941.266 1064.2C943.146 1069.79 945.63 1073.84 948.718 1076.37 951.807 1078.89 956.01 1080.15 961.327 1080.15 968.309 1080.15 973.586 1078.25 977.158 1074.43 980.73 1070.62 982.516 1064.98 982.516 1057.51 982.516 1049.67 980.153 1043.68 975.426 1039.55 970.7 1035.41 963.771 1033.34 954.64 1033.34L947.389 1033.34 947.389 1026.25C954.64 1025.82 960.75 1024.43 965.718 1022.06 970.686 1019.7 974.379 1016.67 976.796 1012.96 979.213 1009.25 980.421 1005.09 980.421 1000.47 980.421 994.51 978.837 989.918 975.668 986.695 972.499 983.472 967.88 981.861 961.81 981.861 956.762 981.861 952.653 983.231 949.484 985.97 946.315 988.709 943.978 992.899 942.474 998.538L932.806 998.538 932.806 983.231C939.037 980.277 944.865 978.074 950.289 976.624 955.714 975.174 960.951 974.449 966 974.449Z" fill-rule="evenodd"/><text fill="#000000" fill-opacity="0" font-family="Arial,Arial_MSFontService,sans-serif" font-size="112.551" x="931.598" y="1072.93">3</text><rect x="1818.5" y="399.5" width="266" height="29.0002" stroke="#000000" stroke-width="6.875" stroke-miterlimit="8"/><path d="M1869.44 463.114 1881.85 463.114 1881.85 613.048 1869.44 613.048ZM2010 462.689 2042.15 535.037 2042.15 540.999 2010 613.428 2001.38 610.367 2027.24 538.018 2001.38 465.589Z" fill-rule="evenodd"/><path d="M1952.74 492.882 1921.24 542.914 1921.24 544.042 1952.74 544.042 1952.74 523.981C1952.74 518.932 1952.83 513.279 1952.99 507.021 1953.15 500.764 1953.34 496.051 1953.55 492.882ZM1955.08 474.674 1966.6 474.674 1966.6 544.042 1968.29 544.042C1971.41 544.042 1973.64 543.813 1974.98 543.357 1976.32 542.9 1977.44 542.095 1978.32 540.94 1979.21 539.785 1980.03 537.892 1980.78 535.26L1986.91 535.26 1985.94 551.857 1966.6 551.857 1966.6 565.07C1966.6 568.668 1966.72 571.3 1966.96 572.965 1967.21 574.63 1967.61 575.946 1968.17 576.913 1968.74 577.88 1969.57 578.685 1970.67 579.33 1971.77 579.974 1973.56 580.619 1976.03 581.263L1976.03 585.211 1943.32 585.211 1943.32 581.263C1946.65 580.404 1948.88 579.451 1950.01 578.403 1951.13 577.356 1951.87 575.865 1952.22 573.932 1952.57 571.998 1952.74 569.044 1952.74 565.07L1952.74 551.857 1907.95 551.857 1907.95 545.814Z" fill-rule="evenodd"/><text fill="#000000" fill-opacity="0" font-family="Arial,Arial_MSFontService,sans-serif" font-size="110.537" x="1907.95" y="571.394">4</text><rect x="3023.5" y="592.5" width="266" height="28.9999" stroke="#000000" stroke-width="6.875" stroke-miterlimit="8"/><path d="M3071.35 656.403 3083.76 656.403 3083.76 806.337 3071.35 806.337ZM3218.17 655.978 3250.31 728.326 3250.31 734.288 3218.17 806.717 3209.55 803.656 3235.41 731.307 3209.55 658.878Z" fill-rule="evenodd"/><path d="M3129.03 700.109C3132.42 700.109 3135.09 701.223 3137.05 703.452 3139.01 705.681 3139.99 708.595 3139.99 712.194 3139.99 715.041 3139.35 718.21 3138.06 721.701L3139.02 722.023C3144.29 714.611 3149.3 709.119 3154.05 705.547 3158.8 701.975 3163.71 700.19 3168.75 700.19 3173.75 700.19 3177.59 701.626 3180.27 704.5 3182.96 707.373 3184.3 711.361 3184.3 716.464 3184.3 719.848 3183.52 724.655 3181.97 730.885L3176.73 751.994C3175.28 757.848 3174.55 761.984 3174.55 764.401 3174.55 766.549 3174.9 768.107 3175.6 769.074 3176.3 770.041 3177.4 770.524 3178.91 770.524 3180.52 770.524 3182.24 769.866 3184.06 768.55 3185.89 767.234 3188.47 764.723 3191.8 761.017L3196.39 765.529C3191.77 770.47 3187.74 774.082 3184.3 776.365 3180.87 778.648 3176.94 779.789 3172.54 779.789 3169.05 779.789 3166.26 778.54 3164.16 776.043 3162.07 773.545 3161.02 770.363 3161.02 766.496 3161.02 763.004 3161.91 757.875 3163.68 751.107L3167.22 737.169C3168.51 732.121 3169.36 728.388 3169.76 725.971 3170.16 723.554 3170.37 721.593 3170.37 720.089 3170.37 716.383 3169.75 713.711 3168.51 712.073 3167.28 710.435 3165.26 709.616 3162.47 709.616 3160.21 709.616 3157.78 710.515 3155.18 712.315 3152.57 714.114 3149.81 716.826 3146.88 720.452 3143.95 724.077 3141.6 727.596 3139.83 731.006 3138.06 734.417 3136.61 738.62 3135.48 743.615L3127.83 778.5 3113.89 778.5 3125.65 727.421C3126.83 722.265 3127.42 718.29 3127.42 715.497 3127.42 713.349 3127.07 711.791 3126.38 710.824 3125.68 709.857 3124.58 709.374 3123.07 709.374 3121.41 709.374 3119.65 710.059 3117.8 711.429 3115.94 712.798 3113.4 715.282 3110.18 718.881L3105.59 714.369C3110.53 709.213 3114.64 705.547 3117.92 703.372 3121.19 701.197 3124.9 700.109 3129.03 700.109Z" fill-rule="evenodd"/><text fill="#000000" fill-opacity="0" font-family="Arial,Arial_MSFontService,sans-serif" font-size="79.6802" x="3105.59" y="769.829">𝑛</text><path d="M1182.88 1107.06 1333.76 1241.23 1320.06 1256.64 1169.18 1122.47ZM1163.18 1144.74 1137.5 1080.5 1204.3 1098.5ZM1339.76 1218.96 1365.44 1283.2 1298.64 1265.2Z" fill="#002060"/><path d="M34.2611 39.8902 311.988 533.807 294.011 543.915 16.2833 49.999ZM3.35985 69.0967 0 0 57.2933 38.7701ZM324.912 514.709 328.272 583.805 270.978 545.035Z" fill="#002060" transform="matrix(1 0 0 -1 1519.5 1233.31)"/><path d="M25.8816 45.7729 136.59 382.984 116.994 389.417 6.28563 52.2063ZM-10.0935 68.438 0 0 48.6943 49.1376ZM152.969 366.752 142.876 435.19 94.1815 386.053Z" fill="#002060" transform="matrix(1 0 0 -1 2647.5 1268.69)"/><path d="M50.8617 13.3453 619.176 290.68 610.13 309.216 41.8163 31.8811ZM42.0391 54.9396 0 0 69.1751-0.667563ZM618.953 267.621 660.992 322.561 591.817 323.228Z" fill="#002060" transform="matrix(1 0 0 -1 1145.5 855.061)"/><path d="M2437.26 1197.41 2071.72 677.609 2088.6 665.745 2454.14 1185.54ZM2465.07 1165.24 2475.36 1233.65 2414.46 1200.84ZM2060.79 697.909 2050.5 629.5 2111.4 662.316Z" fill="#002060"/><path d="M2149.01 535.344 2678.43 671.378 2673.3 691.354 2143.87 555.32ZM2148.73 577.862 2096.5 532.5 2164.13 517.934ZM2673.58 648.835 2725.81 694.198 2658.18 708.764Z" fill="#002060"/><path d="M1190.04 994.744 2246.29 1253.33 2241.39 1273.37 1185.13 1014.78ZM1190.24 1037.26 1137.5 992.5 1204.96 977.163ZM2241.18 1230.85 2293.93 1275.61 2226.47 1290.95Z" fill="#002060"/><path d="M52.3936-4.49366 1531 161.55 1528.7 182.046 50.092 16.0025ZM58.036 37.6492 0 0 64.941-23.8393ZM1523.05 139.903 1581.09 177.552 1516.15 201.391Z" fill="#002060" transform="matrix(1 0 0 -1 1145.5 922.052)"/><path d="M51.064 12.5522 969.961 443.388 961.206 462.062 42.3083 31.2265ZM42.8894 54.2784 0 0 69.1564-1.74445ZM969.38 420.336 1012.27 474.614 943.112 476.358Z" fill="#002060" transform="matrix(1 0 0 -1 1743.5 1283.11)"/><path d="M2425.76 653.906C2429.46 653.906 2432.85 654.147 2435.91 654.631 2438.97 655.114 2442.17 656.054 2445.5 657.451L2442.68 664.621C2437.36 662.956 2431.91 662.123 2426.32 662.123 2418.91 662.123 2412.45 664.366 2406.95 668.851 2401.44 673.336 2397.45 679.714 2394.98 687.985L2435.51 687.985 2433.73 696.364 2392.89 696.364C2392.62 697.331 2392.34 698.889 2392.04 701.037 2391.75 703.185 2391.6 705.253 2391.6 707.241 2391.6 713.041 2393.05 717.499 2395.95 720.615 2398.85 723.73 2402.82 725.288 2407.87 725.288 2412.28 725.288 2416.08 724.979 2419.27 724.361 2422.47 723.743 2425.86 722.763 2429.46 721.42L2431.32 727.866C2426.48 729.799 2422.01 731.236 2417.9 732.176 2413.79 733.116 2409.11 733.586 2403.84 733.586 2395.63 733.586 2389.33 731.276 2384.95 726.657 2380.57 722.038 2378.38 715.458 2378.38 706.918 2378.38 702.729 2378.94 698.083 2380.04 692.98 2381.14 687.878 2382.95 682.99 2385.47 678.317 2388 673.644 2391.22 669.455 2395.14 665.749 2399.06 662.043 2403.62 659.143 2408.8 657.048 2413.98 654.953 2419.63 653.906 2425.76 653.906Z" fill="#002060" fill-rule="evenodd"/><text fill="#000000" fill-opacity="0" font-family="Arial,Arial_MSFontService,sans-serif" font-size="79.6802" x="2378.38" y="723.626">𝜖</text><path d="M2846.82 1090.63C2850.53 1090.63 2853.91 1090.87 2856.97 1091.35 2860.03 1091.83 2863.23 1092.77 2866.56 1094.17L2863.74 1101.34C2858.42 1099.68 2852.97 1098.84 2847.39 1098.84 2839.97 1098.84 2833.51 1101.09 2828.01 1105.57 2822.5 1110.06 2818.52 1116.43 2816.05 1124.71L2856.57 1124.71 2854.8 1133.08 2813.95 1133.08C2813.68 1134.05 2813.4 1135.61 2813.1 1137.76 2812.81 1139.91 2812.66 1141.97 2812.66 1143.96 2812.66 1149.76 2814.11 1154.22 2817.01 1157.33 2819.91 1160.45 2823.89 1162.01 2828.94 1162.01 2833.34 1162.01 2837.14 1161.7 2840.34 1161.08 2843.53 1160.46 2846.93 1159.48 2850.53 1158.14L2852.38 1164.59C2847.55 1166.52 2843.08 1167.96 2838.97 1168.9 2834.86 1169.84 2830.17 1170.31 2824.91 1170.31 2816.69 1170.31 2810.39 1168 2806.01 1163.38 2801.64 1158.76 2799.45 1152.18 2799.45 1143.64 2799.45 1139.45 2800 1134.8 2801.1 1129.7 2802.2 1124.6 2804.01 1119.71 2806.54 1115.04 2809.06 1110.36 2812.29 1106.17 2816.21 1102.47 2820.13 1098.76 2824.68 1095.86 2829.86 1093.77 2835.05 1091.67 2840.7 1090.63 2846.82 1090.63Z" fill="#002060" fill-rule="evenodd"/><text fill="#000000" fill-opacity="0" font-family="Arial,Arial_MSFontService,sans-serif" font-size="79.6802" x="2799.45" y="1160.35">𝜖</text><path d="M1208.58 1236.92C1212.29 1236.92 1215.67 1237.16 1218.73 1237.64 1221.8 1238.13 1224.99 1239.07 1228.32 1240.46L1225.5 1247.63C1220.18 1245.97 1214.73 1245.14 1209.15 1245.14 1201.73 1245.14 1195.28 1247.38 1189.77 1251.86 1184.26 1256.35 1180.28 1262.73 1177.81 1271L1218.33 1271 1216.56 1279.38 1175.71 1279.38C1175.44 1280.34 1175.16 1281.9 1174.87 1284.05 1174.57 1286.2 1174.42 1288.27 1174.42 1290.25 1174.42 1296.05 1175.87 1300.51 1178.77 1303.63 1181.67 1306.74 1185.65 1308.3 1190.7 1308.3 1195.1 1308.3 1198.9 1307.99 1202.1 1307.37 1205.29 1306.76 1208.69 1305.78 1212.29 1304.43L1214.14 1310.88C1209.31 1312.81 1204.84 1314.25 1200.73 1315.19 1196.62 1316.13 1191.93 1316.6 1186.67 1316.6 1178.45 1316.6 1172.15 1314.29 1167.78 1309.67 1163.4 1305.05 1161.21 1298.47 1161.21 1289.93 1161.21 1285.74 1161.76 1281.1 1162.86 1275.99 1163.96 1270.89 1165.77 1266 1168.3 1261.33 1170.82 1256.66 1174.05 1252.47 1177.97 1248.76 1181.89 1245.06 1186.44 1242.15 1191.62 1240.06 1196.81 1237.97 1202.46 1236.92 1208.58 1236.92Z" fill="#002060" fill-rule="evenodd"/><text fill="#000000" fill-opacity="0" font-family="Arial,Arial_MSFontService,sans-serif" font-size="79.6802" x="1161.21" y="1306.64">𝜖</text><path d="M1685.02 729.964C1688.73 729.964 1692.11 730.206 1695.17 730.689 1698.23 731.173 1701.43 732.113 1704.76 733.509L1701.94 740.679C1696.62 739.014 1691.17 738.182 1685.59 738.182 1678.17 738.182 1671.72 740.424 1666.21 744.909 1660.7 749.394 1656.72 755.772 1654.25 764.044L1694.77 764.044 1693 772.423 1652.15 772.423C1651.88 773.389 1651.6 774.947 1651.31 777.095 1651.01 779.244 1650.86 781.312 1650.86 783.299 1650.86 789.1 1652.31 793.558 1655.21 796.673 1658.11 799.788 1662.09 801.346 1667.14 801.346 1671.54 801.346 1675.34 801.037 1678.54 800.419 1681.73 799.802 1685.13 798.822 1688.73 797.479L1690.58 803.924C1685.75 805.858 1681.28 807.294 1677.17 808.234 1673.06 809.174 1668.37 809.644 1663.11 809.644 1654.89 809.644 1648.59 807.335 1644.22 802.716 1639.84 798.096 1637.65 791.517 1637.65 782.977 1637.65 778.787 1638.2 774.141 1639.3 769.039 1640.4 763.936 1642.21 759.049 1644.74 754.376 1647.26 749.703 1650.49 745.513 1654.41 741.807 1658.33 738.101 1662.88 735.201 1668.06 733.106 1673.25 731.011 1678.9 729.964 1685.02 729.964Z" fill="#002060" fill-rule="evenodd"/><text fill="#000000" fill-opacity="0" font-family="Arial,Arial_MSFontService,sans-serif" font-size="79.6802" x="1637.65" y="799.684">𝜖</text><path d="M2185.33 934.007C2189.04 934.007 2192.42 934.248 2195.48 934.732 2198.54 935.215 2201.74 936.155 2205.07 937.551L2202.25 944.722C2196.93 943.057 2191.48 942.224 2185.9 942.224 2178.48 942.224 2172.02 944.467 2166.52 948.952 2161.01 953.436 2157.03 959.815 2154.55 968.086L2195.08 968.086 2193.31 976.465 2152.46 976.465C2152.19 977.432 2151.91 978.989 2151.61 981.138 2151.32 983.286 2151.17 985.354 2151.17 987.341 2151.17 993.142 2152.62 997.6 2155.52 1000.72 2158.42 1003.83 2162.4 1005.39 2167.45 1005.39 2171.85 1005.39 2175.65 1005.08 2178.85 1004.46 2182.04 1003.84 2185.44 1002.86 2189.04 1001.52L2190.89 1007.97C2186.06 1009.9 2181.58 1011.34 2177.48 1012.28 2173.37 1013.22 2168.68 1013.69 2163.42 1013.69 2155.2 1013.69 2148.9 1011.38 2144.52 1006.76 2140.15 1002.14 2137.96 995.559 2137.96 987.019 2137.96 982.83 2138.51 978.184 2139.61 973.081 2140.71 967.979 2142.52 963.091 2145.05 958.418 2147.57 953.745 2150.79 949.556 2154.72 945.85 2158.64 942.144 2163.19 939.243 2168.37 937.149 2173.55 935.054 2179.21 934.007 2185.33 934.007Z" fill="#002060" fill-rule="evenodd"/><text fill="#000000" fill-opacity="0" font-family="Arial,Arial_MSFontService,sans-serif" font-size="79.6802" x="2137.96" y="1003.73">𝜖</text><path d="M2974.28 679.193C2980.01 677.774 2985.21 678.451 2989.88 681.224 2994.55 683.997 2997.6 688.252 2999.02 693.987 3000.38 699.514 2999.66 704.645 2996.85 709.379 2994.04 714.114 2989.76 717.191 2984.03 718.61 2978.19 720.054 2972.87 719.351 2968.07 716.499 2963.27 713.647 2960.18 709.458 2958.82 703.932 2957.4 698.196 2958.16 693 2961.1 688.344 2964.05 683.688 2968.44 680.637 2974.28 679.193ZM2889.03 700.281C2894.76 698.862 2899.97 699.539 2904.64 702.313 2909.31 705.086 2912.35 709.34 2913.77 715.076 2915.14 720.602 2914.41 725.733 2911.6 730.468 2908.79 735.203 2904.51 738.28 2898.78 739.698 2892.94 741.143 2887.62 740.439 2882.82 737.588 2878.02 734.736 2874.94 730.547 2873.57 725.02 2872.15 719.285 2872.91 714.089 2875.86 709.432 2878.8 704.776 2883.19 701.726 2889.03 700.281ZM2803.78 721.37C2809.52 719.951 2814.72 720.628 2819.39 723.401 2824.06 726.174 2827.1 730.429 2828.52 736.164 2829.89 741.691 2829.17 746.821 2826.35 751.556 2823.54 756.291 2819.27 759.368 2813.53 760.787 2807.69 762.231 2802.37 761.528 2797.57 758.676 2792.77 755.824 2789.69 751.635 2788.32 746.108 2786.9 740.373 2787.67 735.177 2790.61 730.521 2793.55 725.865 2797.94 722.814 2803.78 721.37Z" fill-rule="evenodd"/><text fill="#000000" fill-opacity="0" font-family="Arial,Arial_MSFontService,sans-serif" font-size="83.0431" x="2787.63" y="751.135">…</text></g></svg>